REM DIRINDEX 1\2,1\3
REM DIRNAME folder01,folder02,folder03
TITLE ""
FILE "Disc1Track14.mp3" MP3
  TRACK 01 AUDIO
    TITLE "0:"
    INDEX 01 00:00:00
  TRACK 02 AUDIO
    TITLE "3:cjc116_1455"
    INDEX 01 00:00:09
  TRACK 03 AUDIO
    TITLE "0:"
    INDEX 01 00:01:69
  TRACK 04 AUDIO
    TITLE "2:cjc116_1456"
    INDEX 01 00:02:47
  TRACK 05 AUDIO
    TITLE "0:"
    INDEX 01 00:03:57
  TRACK 06 AUDIO
    TITLE "2:cjc116_1457"
    INDEX 01 00:03:74
  TRACK 07 AUDIO
    TITLE "0:"
    INDEX 01 00:07:62
  TRACK 08 AUDIO
    TITLE "2:cjc116_1458"
    INDEX 01 00:08:28
  TRACK 09 AUDIO
    TITLE "0:"
    INDEX 01 00:09:44
  TRACK 10 AUDIO
    TITLE "2:cjc116_1459"
    INDEX 01 00:09:59
  TRACK 11 AUDIO
    TITLE "0:"
    INDEX 01 00:14:56
  TRACK 12 AUDIO
    TITLE "2:cjc116_1460"
    INDEX 01 00:15:23
  TRACK 13 AUDIO
    TITLE "0:"
    INDEX 01 00:16:20
  TRACK 14 AUDIO
    TITLE "2:cjc116_1461"
    INDEX 01 00:16:38
  TRACK 15 AUDIO
    TITLE "0:"
    INDEX 01 00:20:20
  TRACK 16 AUDIO
    TITLE "2:cjc116_1462"
    INDEX 01 00:20:69
  TRACK 17 AUDIO
    TITLE "0:"
    INDEX 01 00:22:17
  TRACK 18 AUDIO
    TITLE "2:cjc116_1463"
    INDEX 01 00:22:32
  TRACK 19 AUDIO
    TITLE "0:"
    INDEX 01 00:26:62
  TRACK 20 AUDIO
    TITLE "2:cjc116_1464"
    INDEX 01 00:27:30
  TRACK 21 AUDIO
    TITLE "0:"
    INDEX 01 00:28:29
  TRACK 22 AUDIO
    TITLE "2:cjc116_1465"
    INDEX 01 00:28:43
  TRACK 23 AUDIO
    TITLE "0:"
    INDEX 01 00:33:15
  TRACK 24 AUDIO
    TITLE "2:cjc116_1466"
    INDEX 01 00:33:56
  TRACK 25 AUDIO
    TITLE "0:"
    INDEX 01 00:34:65
  TRACK 26 AUDIO
    TITLE "2:cjc116_1467"
    INDEX 01 00:35:08
  TRACK 27 AUDIO
    TITLE "0:"
    INDEX 01 00:40:05
  TRACK 28 AUDIO
    TITLE "2:cjc116_1468"
    INDEX 01 00:40:50
  TRACK 29 AUDIO
    TITLE "0:"
    INDEX 01 00:41:57
  TRACK 30 AUDIO
    TITLE "2:cjc116_1469"
    INDEX 01 00:41:71
  TRACK 31 AUDIO
    TITLE "0:"
    INDEX 01 00:47:48
  TRACK 32 AUDIO
    TITLE "2:cjc116_1470"
    INDEX 01 00:48:16
  TRACK 33 AUDIO
    TITLE "0:"
    INDEX 01 00:49:29
  TRACK 34 AUDIO
    TITLE "2:cjc116_1471"
    INDEX 01 00:49:49
  TRACK 35 AUDIO
    TITLE "0:"
    INDEX 01 00:54:11
  TRACK 36 AUDIO
    TITLE "2:cjc116_1472"
    INDEX 01 00:54:52
  TRACK 37 AUDIO
    TITLE "0:"
    INDEX 01 00:55:59
  TRACK 38 AUDIO
    TITLE "2:cjc116_1473"
    INDEX 01 00:56:12
  TRACK 39 AUDIO
    TITLE "0:"
    INDEX 01 01:00:72
  TRACK 40 AUDIO
    TITLE "2:cjc116_1474"
    INDEX 01 01:01:36
  TRACK 41 AUDIO
    TITLE "0:"
    INDEX 01 01:02:54
  TRACK 42 AUDIO
    TITLE "2:cjc116_1475"
    INDEX 01 01:02:61
  TRACK 43 AUDIO
    TITLE "0:"
    INDEX 01 01:08:66
  TRACK 44 AUDIO
    TITLE "2:cjc116_1476"
    INDEX 01 01:09:38
  TRACK 45 AUDIO
    TITLE "0:"
    INDEX 01 01:10:53
  TRACK 46 AUDIO
    TITLE "2:cjc116_1477"
    INDEX 01 01:10:73
  TRACK 47 AUDIO
    TITLE "0:"
    INDEX 01 01:15:03
  TRACK 48 AUDIO
    TITLE "2:cjc116_1478"
    INDEX 01 01:15:40
  TRACK 49 AUDIO
    TITLE "0:"
    INDEX 01 01:16:38
  TRACK 50 AUDIO
    TITLE "2:cjc116_1479"
    INDEX 01 01:16:54
  TRACK 51 AUDIO
    TITLE "0:"
    INDEX 01 01:20:44
  TRACK 52 AUDIO
    TITLE "2:cjc116_1480"
    INDEX 01 01:21:12
  TRACK 53 AUDIO
    TITLE "0:"
    INDEX 01 01:22:05
  TRACK 54 AUDIO
    TITLE "2:cjc116_1481"
    INDEX 01 01:22:19
  TRACK 55 AUDIO
    TITLE "0:"
    INDEX 01 01:25:62
  TRACK 56 AUDIO
    TITLE "2:cjc116_1482"
    INDEX 01 01:26:30
  TRACK 57 AUDIO
    TITLE "0:"
    INDEX 01 01:27:32
  TRACK 58 AUDIO
    TITLE "2:cjc116_1483"
    INDEX 01 01:27:51
  TRACK 59 AUDIO
    TITLE "0:"
    INDEX 01 01:31:47
  TRACK 60 AUDIO
    TITLE "2:cjc116_1484"
    INDEX 01 01:32:19
  TRACK 61 AUDIO
    TITLE "0:"
    INDEX 01 01:33:36
  TRACK 62 AUDIO
    TITLE "2:cjc116_1485"
    INDEX 01 01:33:50
  TRACK 63 AUDIO
    TITLE "0:"
    INDEX 01 01:38:30
  TRACK 64 AUDIO
    TITLE "2:cjc116_1486"
    INDEX 01 01:38:71
  TRACK 65 AUDIO
    TITLE "0:"
    INDEX 01 01:40:09
  TRACK 66 AUDIO
    TITLE "2:cjc116_1487"
    INDEX 01 01:40:25
  TRACK 67 AUDIO
    TITLE "0:"
    INDEX 01 01:44:68
  TRACK 68 AUDIO
    TITLE "2:cjc116_1488"
    INDEX 01 01:45:32
  TRACK 69 AUDIO
    TITLE "0:"
    INDEX 01 01:46:35
  TRACK 70 AUDIO
    TITLE "2:cjc116_1489"
    INDEX 01 01:46:43
  TRACK 71 AUDIO
    TITLE "0:"
    INDEX 01 01:51:62
  TRACK 72 AUDIO
    TITLE "2:cjc116_1490"
    INDEX 01 01:52:30
  TRACK 73 AUDIO
    TITLE "0:"
    INDEX 01 01:53:35
  TRACK 74 AUDIO
    TITLE "2:cjc116_1491"
    INDEX 01 01:53:47
  TRACK 75 AUDIO
    TITLE "0:"
    INDEX 01 01:57:60
  TRACK 76 AUDIO
    TITLE "2:cjc116_1492"
    INDEX 01 01:58:40
  TRACK 77 AUDIO
    TITLE "0:"
    INDEX 01 01:59:32
  TRACK 78 AUDIO
    TITLE "2:cjc116_1493"
    INDEX 01 01:59:55
  TRACK 79 AUDIO
    TITLE "0:"
    INDEX 01 02:03:39
  TRACK 80 AUDIO
    TITLE "2:cjc116_1494"
    INDEX 01 02:04:10
  TRACK 81 AUDIO
    TITLE "0:"
    INDEX 01 02:04:68
  TRACK 82 AUDIO
    TITLE "2:cjc116_1495"
    INDEX 01 02:05:15
  TRACK 83 AUDIO
    TITLE "0:"
    INDEX 01 02:09:21
  TRACK 84 AUDIO
    TITLE "2:cjc116_1496"
    INDEX 01 02:09:62
  TRACK 85 AUDIO
    TITLE "0:"
    INDEX 01 02:10:53
  TRACK 86 AUDIO
    TITLE "2:cjc116_1497"
    INDEX 01 02:11:04
  TRACK 87 AUDIO
    TITLE "0:"
    INDEX 01 02:15:49
  TRACK 88 AUDIO
    TITLE "2:cjc116_1498"
    INDEX 01 02:16:19
  TRACK 89 AUDIO
    TITLE "0:"
    INDEX 01 02:17:20
  TRACK 90 AUDIO
    TITLE "2:cjc116_1499"
    INDEX 01 02:17:38
  TRACK 91 AUDIO
    TITLE "0:"
    INDEX 01 02:23:56
  TRACK 92 AUDIO
    TITLE "2:cjc116_1500"
    INDEX 01 02:24:26
  TRACK 93 AUDIO
    TITLE "0:"
    INDEX 01 02:25:20
  TRACK 94 AUDIO
    TITLE "2:cjc116_1501"
    INDEX 01 02:25:37
  TRACK 95 AUDIO
    TITLE "0:"
    INDEX 01 02:30:03
  TRACK 96 AUDIO
    TITLE "2:cjc116_1502"
    INDEX 01 02:30:36
  TRACK 97 AUDIO
    TITLE "0:"
    INDEX 01 02:31:26
  TRACK 98 AUDIO
    TITLE "2:cjc116_1503"
    INDEX 01 02:31:48
  TRACK 99 AUDIO
    TITLE "0:"
    INDEX 01 02:35:24
  TRACK 100 AUDIO
    TITLE "2:cjc116_1504"
    INDEX 01 02:35:61
  TRACK 101 AUDIO
    TITLE "0:"
    INDEX 01 02:36:53
  TRACK 102 AUDIO
    TITLE "2:cjc116_1505"
    INDEX 01 02:36:68
  TRACK 103 AUDIO
    TITLE "0:"
    INDEX 01 02:40:47
  TRACK 104 AUDIO
    TITLE "2:cjc116_1506"
    INDEX 01 02:41:15
  TRACK 105 AUDIO
    TITLE "0:"
    INDEX 01 02:42:12
  TRACK 106 AUDIO
    TITLE "2:cjc116_1507"
    INDEX 01 02:42:26
  TRACK 107 AUDIO
    TITLE "0:"
    INDEX 01 02:47:09
  TRACK 108 AUDIO
    TITLE "2:cjc116_1508"
    INDEX 01 02:47:52
  TRACK 109 AUDIO
    TITLE "0:"
    INDEX 01 02:48:38
  TRACK 110 AUDIO
    TITLE "2:cjc116_1509"
    INDEX 01 02:48:58
  TRACK 111 AUDIO
    TITLE "0:"
    INDEX 01 02:53:65
  TRACK 112 AUDIO
    TITLE "2:cjc116_1510"
    INDEX 01 02:54:29
  TRACK 113 AUDIO
    TITLE "0:"
    INDEX 01 02:55:30
  TRACK 114 AUDIO
    TITLE "2:cjc116_1511"
    INDEX 01 02:55:52
  TRACK 115 AUDIO
    TITLE "0:"
    INDEX 01 03:00:08
  TRACK 116 AUDIO
    TITLE "2:cjc116_1512"
    INDEX 01 03:00:53
  TRACK 117 AUDIO
    TITLE "0:"
    INDEX 01 03:01:68
  TRACK 118 AUDIO
    TITLE "2:cjc116_1513"
    INDEX 01 03:02:11
  TRACK 119 AUDIO
    TITLE "0:"
    INDEX 01 03:08:12
  TRACK 120 AUDIO
    TITLE "2:cjc116_1514"
    INDEX 01 03:08:53
  TRACK 121 AUDIO
    TITLE "0:"
    INDEX 01 03:09:68
  TRACK 122 AUDIO
    TITLE "2:cjc116_1515"
    INDEX 01 03:10:10
  TRACK 123 AUDIO
    TITLE "0:"
    INDEX 01 03:14:38
  TRACK 124 AUDIO
    TITLE "2:cjc116_1516"
    INDEX 01 03:15:21
  TRACK 125 AUDIO
    TITLE "0:"
    INDEX 01 03:16:23
  TRACK 126 AUDIO
    TITLE "2:cjc116_1517"
    INDEX 01 03:16:42
  TRACK 127 AUDIO
    TITLE "0:"
    INDEX 01 03:20:60
  TRACK 128 AUDIO
    TITLE "2:cjc116_1518"
    INDEX 01 03:21:32
  TRACK 129 AUDIO
    TITLE "0:"
    INDEX 01 03:22:27
  TRACK 130 AUDIO
    TITLE "2:cjc116_1519"
    INDEX 01 03:22:45
  TRACK 131 AUDIO
    TITLE "0:"
    INDEX 01 03:27:11
  TRACK 132 AUDIO
    TITLE "2:cjc116_1520"
    INDEX 01 03:27:44
  TRACK 133 AUDIO
    TITLE "0:"
    INDEX 01 03:28:46
  TRACK 134 AUDIO
    TITLE "2:cjc116_1521"
    INDEX 01 03:28:63
  TRACK 135 AUDIO
    TITLE "0:"
    INDEX 01 03:32:39
  TRACK 136 AUDIO
    TITLE "2:cjc116_1522"
    INDEX 01 03:33:19
  TRACK 137 AUDIO
    TITLE "0:"
    INDEX 01 03:34:17
  TRACK 138 AUDIO
    TITLE "2:cjc116_1523"
    INDEX 01 03:34:27
  TRACK 139 AUDIO
    TITLE "0:"
    INDEX 01 03:39:30
  TRACK 140 AUDIO
    TITLE "2:cjc116_1524"
    INDEX 01 03:39:73
  TRACK 141 AUDIO
    TITLE "0:"
    INDEX 01 03:41:09
  TRACK 142 AUDIO
    TITLE "2:cjc116_1525"
    INDEX 01 03:41:23
  TRACK 143 AUDIO
    TITLE "0:"
    INDEX 01 03:44:48
  TRACK 144 AUDIO
    TITLE "2:cjc116_1526"
    INDEX 01 03:45:15
  TRACK 145 AUDIO
    TITLE "0:"
    INDEX 01 03:46:26
  TRACK 146 AUDIO
    TITLE "2:cjc116_1527"
    INDEX 01 03:46:40
  TRACK 147 AUDIO
    TITLE "0:"
    INDEX 01 03:50:71
  TRACK 148 AUDIO
    TITLE "2:cjc116_1528"
    INDEX 01 03:51:37
  TRACK 149 AUDIO
    TITLE "0:"
    INDEX 01 03:52:36
  TRACK 150 AUDIO
    TITLE "2:cjc116_1529"
    INDEX 01 03:52:52
  TRACK 151 AUDIO
    TITLE "0:"
    INDEX 01 03:57:18
  TRACK 152 AUDIO
    TITLE "2:cjc116_1530"
    INDEX 01 03:58:02
  TRACK 153 AUDIO
    TITLE "0:"
    INDEX 01 03:59:05
  TRACK 154 AUDIO
    TITLE "2:cjc116_1531"
    INDEX 01 03:59:19
  TRACK 155 AUDIO
    TITLE "0:"
    INDEX 01 04:03:18
  TRACK 156 AUDIO
    TITLE "2:cjc116_1532"
    INDEX 01 04:03:63
  TRACK 157 AUDIO
    TITLE "0:"
    INDEX 01 04:04:71
  TRACK 158 AUDIO
    TITLE "2:cjc116_1533"
    INDEX 01 04:05:09
  TRACK 159 AUDIO
    TITLE "0:"
    INDEX 01 04:09:29
  TRACK 160 AUDIO
    TITLE "2:cjc116_1534"
    INDEX 01 04:10:01
  TRACK 161 AUDIO
    TITLE "0:"
    INDEX 01 04:10:66
  TRACK 162 AUDIO
    TITLE "2:cjc116_1535"
    INDEX 01 04:11:12
  TRACK 163 AUDIO
    TITLE "0:"
    INDEX 01 04:15:35
  TRACK 164 AUDIO
    TITLE "2:cjc116_1536"
    INDEX 01 04:16:13
  TRACK 165 AUDIO
    TITLE "0:"
    INDEX 01 04:17:05
  TRACK 166 AUDIO
    TITLE "2:cjc116_1537"
    INDEX 01 04:17:17
  TRACK 167 AUDIO
    TITLE "0:"
    INDEX 01 04:20:50
  TRACK 168 AUDIO
    TITLE "2:cjc116_1538"
    INDEX 01 04:21:18
  TRACK 169 AUDIO
    TITLE "0:"
    INDEX 01 04:22:29
  TRACK 170 AUDIO
    TITLE "2:cjc116_1539"
    INDEX 01 04:22:47
  TRACK 171 AUDIO
    TITLE "0:"
    INDEX 01 04:26:41
  TRACK 172 AUDIO
    TITLE "2:cjc116_1540"
    INDEX 01 04:27:13
  TRACK 173 AUDIO
    TITLE "0:"
    INDEX 01 04:28:05
  TRACK 174 AUDIO
    TITLE "2:cjc116_1541"
    INDEX 01 04:28:20
  TRACK 175 AUDIO
    TITLE "0:"
    INDEX 01 04:31:66
  TRACK 176 AUDIO
    TITLE "2:cjc116_1542"
    INDEX 01 04:32:34
  TRACK 177 AUDIO
    TITLE "0:"
    INDEX 01 04:33:29
  TRACK 178 AUDIO
    TITLE "2:cjc116_1543"
    INDEX 01 04:33:47
  TRACK 179 AUDIO
    TITLE "0:"
    INDEX 01 04:37:29
